# xmcd
#
# Track frame offsets:
#	150
#	15293
#	28771
#	42692
#	57016
#	70621
#	82553
#	101340
#	117923
#	132329
#	145250
#
# Disc length: 2157 seconds
#
# Revision: 1
# Processed by: cddbd v1.5.2PL0 Copyright (c) Steve Scherf et al.
# Submitted via: audiograbber 1.83.01
#
DISCID=84086b0b
DTITLE=Dean Miller - Platinum
DYEAR=2005
DGENRE=Country
TTITLE0=Hard Love
TTITLE1=105
TTITLE2=Ready For The Rain
TTITLE3=Whiskey Wings
TTITLE4=Stronger Than Love
TTITLE5=I've Been A Long Time Leaving
TTITLE6=Coming Back To You
TTITLE7=On A Good Day
TTITLE8=Right Now
TTITLE9=Yes Man
TTITLE10=Music Executive
EXTD=
EXTT0=
EXTT1=
EXTT2=
EXTT3=
EXTT4=
EXTT5=
EXTT6=
EXTT7=
EXTT8=
EXTT9=
EXTT10=
PLAYORDER=
